<svg xmlns="http://www.w3.org/2000/svg" aria-hidden="true" data-bbox="0 0.008 85.251 92.992" viewBox="0 0.008 85.251 92.992"><path d="M63.4 19.6C51 41.8 43.7 66.9 43.1 92.3c0 .4.3.7.7.7.4 0 .7-.3.7-.7.6-25.2 7.8-50 20-72 .2-.3.1-.7-.2-.9-.4-.2-.8-.1-.9.2z"/><path d="M53.6 43.6c4.5-1.5 9.1-2.7 13.7-3.5.9-.1.5-1.5-.4-1.3-4.7.8-9.2 2-13.7 3.5-.8.3-.4 1.6.4 1.3z"/><path d="M54.6 41.5c.4-4.1-3.1-7.9-5.5-10.8-.6-.7-1.5.3-1 1 2.2 2.6 5.5 6.1 5.1 9.8-.1.9 1.3.9 1.4 0zM45.3 73.8C37.2 68 30 61 23.8 53.2c-.5-.7-1.5.3-1 1 6.3 7.9 13.6 14.9 21.8 20.8.7.5 1.4-.7.7-1.2z"/><path d="M36.4 55.4c.3 3.7-.2 7.5-1.5 11-.3.8 1 1.2 1.3.4 1.3-3.6 1.8-7.5 1.5-11.4 0-.9-1.4-.9-1.3 0zM37 67.8c-3.7.6-7.5 1.2-11.2 1.8-.9.1-.5 1.5.4 1.3 3.7-.6 7.5-1.2 11.2-1.8.8-.1.5-1.4-.4-1.3zM45 83.6c3.5-5.7 12-8.8 17.7-11.8 6-3.1 12-6.1 17.9-9.3.3-.2.4-.6.2-.9s-.6-.4-.9-.2c-6.8 3.7-13.7 7-20.5 10.7-5.3 2.8-12.2 5.6-15.5 10.9-.2.3-.1.7.2.9.2.1.7 0 .9-.3z"/><path d="M52.2 77.1c1.7-3.5 3.7-6.8 6-10 2.1-3 5.6-4.8 9.3-4.7 3.7 0 9.1 1.6 7 7-3.5 9.1-14.6 10.5-22.6 7.2-.8-.3-1.2 1-.4 1.3 5.4 2.2 11.4 2.7 16.6-.1C72 75.7 78 70 76.1 65c-1.7-4.3-8.1-4.5-11.9-3.8-6.9 1.3-10.5 9.4-13.3 15.1-.3.9.9 1.6 1.3.8zM48.7 31.7c3.7-1.3 5.9-3.9 5.3-7.9-.7-4.4-4.8-8.8-9.5-8.7C41 15 38 17.8 38 21.4c0 .4 0 .8.1 1.2.9 4.9 5.8 7.4 10 9.1.8.3 1.2-1 .4-1.3-2.6-.9-5-2.3-7-4.2-3.2-3.3-2.5-9.4 2.8-9.7 3.7-.2 6.9 2.7 8 6 1.3 3.7-.3 6.6-3.9 7.8-.9.3-.6 1.6.3 1.4z"/><path d="M43.8 12.8c-.7-.4-1.4-.4-2.2-.2-.9.1-1.7.5-2.3 1.1-.5.6-.5 1.5 0 2 .1.1.2.1.3.2.3.1.7.1 1 0 1.2-.2 2.4-.7 3.5-1.3.4-.4.4-1.2 0-1.6-.2-.1-.2-.2-.3-.2z"/><path d="M44.1 12.2c-1.7-.7-3.7-.4-5.1.7-1 .9-1.1 2.8.2 3.4.8.3 1.8.2 2.6-.1 1-.2 2-.6 2.8-1.2.7-.7.7-1.9-.1-2.6-.2-.1-.3-.1-.4-.2-.7-.5-1.4.7-.7 1.2s0 .8-.3.9c-.9.4-1.8.7-2.7.9-.6 0-1-.2-.8-.8.2-.4.6-.8 1-.9.9-.4 1.9-.5 2.8-.1.9.4 1.5-.8.7-1.2zM73.4 4.3c-3.7-1.7-10.4.3-12.6 3.9-2.3 3.8 0 11 4 12.9 3.8 1.8 10.6.2 12.8-3.4 3-4.7 0-10.6-4.2-13.4-.6-.5-1.3.7-.6 1.2 3.3 2.3 6.1 7.1 3.9 11.1-1.7 3.1-7.2 4.4-10.5 3.5-3.8-1-6.3-7.9-4.2-11.2 1.7-2.7 7.9-4.7 10.8-3.4.8.3 1.5-.8.6-1.2z"/><path d="M72.9 4.3c.7 1.3 2.8 1.1 3.9.2.8-.6 1.4-1.8.9-2.6-.4-.5-.9-.8-1.4-1-.9-.4-2-.3-2.9.3 0 0-1.8.9-.5 3.1z"/><path d="M72.3 4.6C74.6 8 81 3.6 77.7.9 76.3-.2 74.4-.3 73 .7c-1.3 1-1.6 2.7-.7 3.9.2.3.6.4.9.2.3-.2.4-.6.2-.9-.9-1.8.6-2.9 2.3-2.4 3.6 1-1 4.5-2.3 2.4-.4-.7-1.6 0-1.1.7zM67.7 39.6c1-3.7 4.2-6.7 8.1-6.7 3.5 0 7.7 2.9 7.9 6.6.3 4.1-6 6.8-9.4 6.7-3.9 0-6.4-3-6.5-6.8 0-.4-.3-.7-.7-.7-.4 0-.7.3-.7.7.2 4.1 2.7 7.7 7 8.1 4 .4 11.2-2.3 11.8-6.9S81 32 76.9 31.5c-5-.6-9.2 3.1-10.5 7.7-.1.4.1.7.5.8s.7 0 .8-.4zM37.7 56.1c3.8-.6 6.9-3.6 7.4-7.4.4-3.1-.9-7.7-4.6-8-3.4-.3-6.8 2.4-7.8 5.5-1.2 3.7.9 7.6 3.9 9.7.7.5 1.4-.7.7-1.2-4.7-3.3-4.8-12.2 2.3-12.6 4-.3 4.8 4.6 4 7.6-.9 2.8-3.3 4.8-6.2 5.1-.9.2-.6 1.5.3 1.3zM41 40.1c.9-.3 1.3-1.3 1-2.1 0-.1-.1-.3-.2-.4-.7-.8-1.9-1-2.8-.3-.6.8-.6 1.9 0 2.7l2 .1z"/><path d="M41.2 40.8c1.2-.4 1.9-1.7 1.5-3 0-.1-.1-.2-.1-.3-.7-1.2-2.3-1.7-3.5-1-.6.4-1 1.1-1.1 1.8-.1.8.1 1.6.7 2.2.4.2.8.2 1.2.2h1.2c.4 0 .7-.3.7-.7 0-.4-.3-.7-.7-.7l-2-.1.6.3c-.3-.5-.4-1.2-.1-1.7.3-.4.8-.5 1.2-.3.4 0 .7.4.8.8.1.4-.2.9-.6 1-.4.1-.6.5-.5.9-.1.4.3.7.7.6zM23.7 53.5c1.9-3.1 3.8-8 1.1-11.3-2.3-2.8-7.9-5.2-11.3-3.2-3.1 1.9-3.8 6.1-2.2 9.2 2.3 4.1 6.8 6.5 11.5 5.9.9-.1.9-1.5 0-1.4-3.2.4-6.4-.7-8.7-3-2.5-2.5-3.5-7.4.2-9.4 2.8-1.5 7.6.4 9.5 2.9 2.2 2.8.4 7-1.2 9.7-.2.3-.1.7.2.9.3.2.7.1.9-.3z"/><path d="M15.1 38c1.5-.2 1.5-2.9.1-3.3s-3.4.5-3 1.9c.2 1.1.8 1.9 2.6 1.5l.3-.1z"/><path d="M15.3 38.6c1.3-.4 2-1.7 1.6-3v-.1c-.5-1.4-2-2.1-3.4-1.6 0 0-.1 0-.1.1-1.3.3-2.1 1.6-1.7 2.9 0 .2.1.4.2.5.5 1.5 2 1.7 3.4 1.2.4-.1.6-.5.5-.8-.1-.4-.5-.6-.8-.5-.6.2-1.5.4-1.9-.3-.4-.5-.3-1.1.2-1.5.1-.1.3-.2.4-.2.6-.3 1.4-.1 1.8.5v.1c.2.5 0 1.1-.5 1.3 0 0-.1 0-.1.1-.8.2-.5 1.6.4 1.3zM25 67.1c-2.9-4-8.7-5.1-13.4-3.9-4 1-8.1 5.6-5.5 9.8s10.6 5.6 14.9 4c4-1.5 6.9-6.2 4-9.9-.5-.7-1.7 0-1.2.7 2.7 3.5-.7 7.4-4.2 8.2-3.7.9-9.4-.5-11.8-3.5-3.8-4.7 2.6-8.2 6.7-8.3 3.5-.1 7.1.6 9.2 3.6.7.7 1.9 0 1.3-.7z"/><path d="M3.7 70.8c1.1-.3 2-1.2 2.3-2.3.3-.7.1-1.4-.4-1.9-.4-.3-.8-.6-1.3-.8-1.7-.6-3.5.2-4.2 1.9 0 .4-.1.7-.1 1.1.1 1.7 1.5 2.9 3.1 2.9.4 0 .9-.1 1.2-.3 1-.5 1.6-1.6 1.4-2.6-.1-1-1.1-1.8-2.1-1.6-.2 0-.4.1-.6.2-.6.4-.9 1.2-.5 1.9.4.6 1.2.9 1.9.5h.1l-.7.2c-.3 0-.7-.2-.7-.6 0-.7.2-.2 0-.3h.1c.2 0 .3-.2.3-.3 0-.2-.2-.3-.3-.3-.2 0-.3.2-.3.3 0 .1.1.2.3.3.1-.1-.2 0 0 0h-.3c.2.1.3 0 .4-.2.1-.2 0-.3-.2-.4-.2-.1-.3 0-.4.2-.1.1 0 .3.1.3.2.1 0-.1 0-.1-.1-.2.1-.4.3-.5.3-.1.6 0 .8.2l-.4-1c0 .2-.2.5-.4.5-.7.3-1.1 1.1-.8 1.8.1.5.7.9 1.4.9z"/></svg>